<?xml version="1.0" encoding="utf-8"?>
<!-- Generator: Adobe Illustrator 19.2.0, SVG Export Plug-In . SVG Version: 6.00 Build 0)  -->
<svg version="1.1" id="Layer_1" xmlns="http://www.w3.org/2000/svg" xmlns:xlink="http://www.w3.org/1999/xlink" x="0px" y="0px"
	 viewBox="0 0 57 57" style="enable-background:new 0 0 57 57;" xml:space="preserve">
<style type="text/css">
	.st0{fill:#FFFFFF;}
</style>
<path class="st0" d="M18.6,26v6h9.8c-0.4,2.5-2.9,7.5-9.8,7.5c-5.9,0-10.8-4.9-10.8-10.9s4.8-10.9,10.6-10.9c3.4,0,5.6,1.4,6.8,2.7
	l4.7-4.6c-3-2.8-7-4.6-11.6-4.6C8.8,11.3,1.1,19,1.1,28.6s7.7,17.3,17.3,17.3c10,0,16.6-7.1,16.6-16.8c0-1.1-0.1-2-0.2-2.8
	C34.9,26,18.6,26,18.6,26z M55.7,26h-4.9v-4.9h-4.9V26H41v4.9h4.9v4.9h4.9v-4.9h4.9"/>
</svg>
