<?xml version="1.0" encoding="utf-8"?>
<!-- Generator: Adobe Illustrator 19.2.0, SVG Export Plug-In . SVG Version: 6.00 Build 0)  -->
<svg version="1.1" id="Layer_1" xmlns="http://www.w3.org/2000/svg" xmlns:xlink="http://www.w3.org/1999/xlink" x="0px" y="0px"
	 viewBox="0 0 100 100" enable-background="new 0 0 100 100" xml:space="preserve">
<g display="none">
	
		<rect x="-123.1" y="-12.5" display="inline" fill="#CCCCFF" stroke="#000000" stroke-width="4" stroke-miterlimit="10" width="1220.1" height="990.1"/>
</g>
<g>
	<path fill="#E81E7C" d="M57.4,47l0.2-0.2l0.2,0.2l16.8-16.8c4.6-4.6,4.6-12.2,0-16.8c-2.3-2.3-5.4-3.5-8.4-3.5
		c-3,0-6.1,1.2-8.4,3.5l-0.2,0.2l-0.2-0.2C55.1,11.1,52.1,10,49,10s-6.1,1.2-8.4,3.5c-4.6,4.6-4.6,12.2,0,16.8L57.4,47z M55.3,15.6
		l0.2,0.2l2.1,2.1l2.1-2.1l0.2-0.2c1.7-1.7,3.9-2.6,6.3-2.6c2.4,0,4.6,0.9,6.3,2.6s2.6,3.9,2.6,6.3s-0.9,4.6-2.6,6.3L57.7,42.8
		l-0.2-0.2l-0.2,0.2L42.8,28.1c-3.5-3.5-3.5-9.1,0-12.6c1.7-1.7,3.9-2.6,6.3-2.6C51.4,13,53.6,13.9,55.3,15.6z"/>
	<path fill="#E81E7C" d="M20.8,90c0.7,0,1.5-0.2,2.1-0.7l11.9-9.1c0.9,0.1,1.8,0.1,2.7,0.1H64c0.7,0,1.5,0,2.3-0.1
		c0.5-0.1,1-0.4,1.2-0.9c0.5-0.3,1-0.6,1.4-1l24-24c1.4-1.4,2.2-3.5,2.1-5.5c-0.1-2.1-1.1-4-2.6-5.3c-2.9-2.4-7.3-2.1-10,0.7
		L71.5,54.9c-1-0.6-2.1-0.9-3.3-0.9c0,0,0,0,0,0c-0.2,0-5.3-0.2-6.5-0.2c-0.9,0-1.7,0-2.6,0c-4.4,0.1-9,0.2-13.2-0.9
		c-0.9-0.2-1.9-0.5-2.7-0.8c-4.4-1.3-8.6-2.5-13.9-0.7c-4.7,1.6-9.1,4.7-14,9.8l-9.1,8.3c-1.4,1.2-1.5,3.3-0.3,4.7l12.4,14.5
		C18.9,89.6,19.9,90,20.8,90z M8.1,71.9l9.2-8.3c0,0,0.1,0,0.1-0.1c4.5-4.8,8.6-7.7,12.8-9.1c4.4-1.5,7.8-0.6,12.1,0.7
		c0.9,0.3,1.8,0.5,2.8,0.8c4.5,1.2,9.6,1.1,14,1c0.9,0,1.7,0,2.6,0c1.1,0,6.3,0.2,6.4,0.2c1,0,1.9,0.4,2.6,1.1s1.1,1.6,1.1,2.6
		c0,2-1.6,3.6-3.6,3.6H44.7c-0.7,0-1.3,0.5-1.5,1.2c-0.1,0.2-0.1,0.5-0.1,0.9c0,0.8,0.7,1.5,1.5,1.5c0.5,0,0.9-0.2,1.2-0.6h22.3
		c3.7,0,6.6-3,6.6-6.6c0-1.3-0.4-2.5-1.1-3.6l10.7-10.7c1.7-1.7,4.3-1.9,6-0.5c0.9,0.8,1.5,1.9,1.6,3.1c0.1,1.2-0.4,2.4-1.3,3.3
		l-24,24c-0.7,0.7-1.8,1-2.7,0.9v0.3c0,0,0,0,0,0H37.5c-1,0-1.9,0-2.8-0.2c-0.4-0.1-0.9,0-1.3,0.3l-12.4,9.5c-0.2,0.1-0.4,0.1-0.5,0
		L8.1,72.4C7.9,72.3,8,72,8.1,71.9z"/>
</g>
</svg>
