<?xml version="1.0" encoding="utf-8"?>
<!-- Generator: Adobe Illustrator 19.2.0, SVG Export Plug-In . SVG Version: 6.00 Build 0)  -->
<svg version="1.1" id="Layer_1" xmlns="http://www.w3.org/2000/svg" xmlns:xlink="http://www.w3.org/1999/xlink" x="0px" y="0px"
	 viewBox="0 0 100 100" enable-background="new 0 0 100 100" xml:space="preserve">
<g display="none">
	
		<rect x="-3.8" y="-16.8" display="inline" fill="#CCCCFF" stroke="#000000" stroke-width="4" stroke-miterlimit="10" width="1220.1" height="990.1"/>
</g>
<g>
	<path fill="#E81E7C" d="M50.4,50.8l0.2-0.2l0.2,0.2l17.1-17.1c4.7-4.7,4.7-12.4,0-17.1c-2.4-2.4-5.5-3.5-8.5-3.5
		c-3.1,0-6.2,1.2-8.5,3.5l-0.2,0.2l-0.2-0.2c-2.4-2.4-5.5-3.5-8.5-3.5c-3.1,0-6.2,1.2-8.5,3.5c-4.7,4.7-4.7,12.4,0,17.1L50.4,50.8z
		 M48.2,18.7l0.2,0.2l2.2,2.2l2.2-2.2l0.2-0.2c1.7-1.7,4-2.6,6.4-2.6s4.7,0.9,6.4,2.6c1.7,1.7,2.6,4,2.6,6.4s-0.9,4.7-2.6,6.4
		L50.7,46.4l-0.2-0.1l-0.2,0.2l-14.8-15c-3.5-3.5-3.5-9.3,0-12.8c1.7-1.7,4-2.6,6.4-2.6C44.3,16.1,46.5,17,48.2,18.7z"/>
	<path fill="#E81E7C" d="M65.6,56.9c-3.2,1.8-6.3,3.4-8.2,7.5c-1.7,3.5-2.5,7.8-2.3,13.4l-0.4,9h3.1l0.4-8.9v-0.1
		c-0.1-5.1,0.5-8.9,2-12c1.6-3.2,4-4.5,7-6.2c0.7-0.4,1.3-0.7,2-1.1c3.2-1.9,6-4.7,8.4-7.3c0.5-0.5,0.9-1,1.4-1.5s2.8-2.6,3.7-3.4
		c0.9-0.9,2.6-0.9,3.5,0c1,1,1,2.6,0,3.5l-13,13c-0.5,0.5-0.6,1.3-0.2,1.9c0.1,0.2,0.3,0.4,0.5,0.6c0.6,0.6,1.6,0.6,2.2,0
		c0.3-0.3,0.5-0.7,0.4-1.1L88.2,52c2.2-2.2,2.2-5.7,0-7.9c-0.7-0.7-1.6-1.2-2.5-1.4V31c0-1.7,1.2-3.1,2.7-3.3
		c0.9-0.1,1.7,0.2,2.3,0.8c0.6,0.6,1,1.4,1,2.2v26.7c0,0.7-0.4,1.4-0.9,1.8l0.1,0.1l0,0L76.3,74c-0.6,0.6-1.1,1-1.6,1.4
		c-0.4,0.2-0.6,0.6-0.7,1.1l-1.3,10.2h3l1.2-9.2c0.5-0.4,1-0.9,1.5-1.4l14.8-14.6c0.4-0.4,0.8-0.8,1.2-1.3c0.3-0.4,0.4-0.9,0.3-1.4
		c0.1-0.4,0.2-0.9,0.2-1.3V30.8c0-1.7-0.7-3.3-2-4.5s-3-1.7-4.7-1.6c-3.1,0.3-5.5,3.1-5.5,6.3v11.7c-0.8,0.3-1.6,0.7-2.2,1.3
		c-0.1,0.1-3.1,2.8-3.7,3.5c-0.5,0.5-0.9,1-1.4,1.5c-2.4,2.5-4.9,5.1-7.7,6.7C66.9,56.2,66.2,56.5,65.6,56.9z"/>
	<path fill="#E81E7C" d="M22.7,77.6l1.2,9.2H27l-1.4-10.2c-0.1-0.5-0.3-0.9-0.7-1.1c-0.5-0.3-1-0.8-1.6-1.4L8.7,59.4l0,0l0.1-0.1
		c-0.6-0.4-0.9-1-0.9-1.8V30.8c0-0.8,0.4-1.7,1-2.2c0.6-0.5,1.3-0.8,2-0.8c0.1,0,0.2,0,0.3,0c1.5,0.1,2.7,1.6,2.7,3.3v11.6
		c-0.9,0.2-1.8,0.7-2.5,1.4c-2.2,2.2-2.2,5.7,0,7.9l12.3,12.3c0,0.4,0.2,0.8,0.5,1.1c0.6,0.6,1.6,0.6,2.2,0c0.2-0.2,0.4-0.5,0.5-0.6
		c0.4-0.6,0.3-1.4-0.2-1.9l-13-13c-1-1-1-2.6,0-3.5c0.9-0.9,2.5-1,3.6,0c0.8,0.8,3.1,2.9,3.6,3.4s0.9,1,1.4,1.5
		c2.4,2.5,5.2,5.4,8.4,7.3c0.7,0.4,1.4,0.8,2,1.1c3,1.7,5.4,3,7,6.2c1.5,3.1,2.2,6.9,2,12V78l0.5,8.9h3l-0.4-9
		c0.1-5.6-0.6-9.8-2.3-13.4c-2-4.1-5-5.8-8.2-7.5c-0.6-0.3-1.3-0.7-1.9-1.1c-2.9-1.7-5.3-4.3-7.7-6.7c-0.5-0.5-1-1-1.4-1.5
		c-0.7-0.7-3.6-3.4-3.7-3.5c-0.6-0.6-1.4-1.1-2.3-1.4V31c0-3.2-2.4-6-5.5-6.3c-1.7-0.2-3.4,0.4-4.7,1.6c-1.3,1.2-2,2.8-2,4.5v26.7
		c0,0.5,0.1,0.9,0.2,1.3c-0.1,0.5-0.1,1,0.3,1.4c0.4,0.5,0.8,0.9,1.2,1.3l14.4,14.7C21.7,76.7,22.2,77.2,22.7,77.6z"/>
</g>
</svg>
